/* XPM */
static char *fb01d412e37048a3f015127004fde28a1sO3jWReJe3DZ4QB[] = {
/* columns rows colors chars-per-pixel */
"64 63 193 2 ",
"   c #7D5646",
".  c #69695A",
"X  c #796757",
"o  c #677768",
"O  c #8C4836",
"+  c #8D4C39",
"@  c #924A33",
"#  c #934E39",
"$  c #92553E",
"%  c #9D5838",
"&  c #AD5D35",
"*  c #AE623E",
"=  c #B36034",
"-  c #B2653E",
";  c #B86A3F",
":  c #875543",
">  c #8D5641",
",  c #945746",
"<  c #925841",
"1  c #995F4A",
"2  c #A95E42",
"3  c #986349",
"4  c #9D634A",
"5  c #8E6C54",
"6  c #A36145",
"7  c #AD6545",
"8  c #AE6847",
"9  c #A3654B",
"0  c #AA674A",
"q  c #A6684E",
"w  c #AD6B4C",
"e  c #B46746",
"r  c #B96544",
"t  c #B56A47",
"y  c #B96D45",
"u  c #B36D4B",
"i  c #BA6F4A",
"p  c #B3704F",
"a  c #BB724D",
"s  c #A66B50",
"d  c #AE6E50",
"f  c #B06F51",
"g  c #A5785C",
"h  c #B37151",
"j  c #BC7551",
"k  c #BD7953",
"l  c #B1795D",
"z  c #C57446",
"x  c #CB7445",
"c  c #C6754A",
"v  c #C4794E",
"b  c #CA7A4D",
"n  c #D57B4B",
"m  c #C47C54",
"M  c #CA7E53",
"N  c #C17E58",
"B  c #D27C50",
"V  c #558B7C",
"C  c #6E836F",
"Z  c #658373",
"A  c #6C8A75",
"S  c #66887A",
"D  c #B48573",
"F  c #AE9073",
"G  c #B99478",
"H  c #D3804F",
"J  c #DB814F",
"K  c #C58055",
"L  c #CC8256",
"P  c #CC8359",
"I  c #C68B5A",
"U  c #CD8959",
"Y  c #D18456",
"T  c #DA8251",
"R  c #DA8957",
"E  c #D48658",
"W  c #D68A5B",
"Q  c #DA8B5A",
"!  c #D5935F",
"~  c #DB935F",
"^  c #CF8B61",
"/  c #C2896D",
"(  c #D28D62",
")  c #D69461",
"_  c #DD9665",
"`  c #DD9B64",
"'  c #D5956A",
"]  c #DE9768",
"[  c #DD996A",
"{  c #C88F7B",
"}  c #CA967C",
"|  c #E39D66",
" . c #E19A69",
".. c #E59F70",
"X. c #DFA166",
"o. c #DBA56B",
"O. c #DAAA6C",
"+. c #E5A167",
"@. c #E5A56A",
"#. c #E9A56A",
"$. c #E5A96D",
"%. c #EEAE6F",
"&. c #F1AE6F",
"*. c #E6A372",
"=. c #E9A674",
"-. c #E5AD73",
";. c #ECAB74",
":. c #EEB171",
">. c #EAB277",
",. c #EABC71",
"<. c #EFBA7A",
"1. c #F1B472",
"2. c #F5B975",
"3. c #F8BB76",
"4. c #F0BB7C",
"5. c #F4C577",
"6. c #F5C47E",
"7. c #F2C97E",
"8. c #4B9886",
"9. c #5F9C87",
"0. c #599D90",
"q. c #45A494",
"w. c #4DA99B",
"e. c #53A597",
"r. c #46B2A3",
"t. c #4EB5A7",
"y. c #4DBBAB",
"u. c #53B7A7",
"i. c #62B1A0",
"p. c #38C3AD",
"a. c #3CC5B0",
"s. c #49C2AE",
"d. c #43C5B1",
"f. c #4BC9B6",
"g. c #4EC4B9",
"h. c #53C9B7",
"j. c #5CCEBC",
"k. c #68C2B3",
"l. c #5DDBD0",
"z. c #6CD2C5",
"x. c #75D5C9",
"c. c #7AD6CA",
"v. c #7AE3D6",
"b. c #BF9482",
"n. c #C79985",
"m. c #CA9C85",
"M. c #CFA087",
"N. c #CEA28B",
"B. c #C5A599",
"V. c #C5A69B",
"C. c #D1A692",
"Z. c #D1A997",
"A. c #D3AB99",
"S. c #D6B4A9",
"D. c #DBBBAC",
"F. c #DBBEB3",
"G. c #83C3BA",
"H. c #F5CB80",
"J. c #FBD384",
"K. c #FFDB89",
"L. c #D7C1B7",
"P. c #DFC4B7",
"I. c #E9C4B1",
"U. c #E2C9BE",
"Y. c #8BD6C9",
"T. c #93DED2",
"R. c #ACD5CE",
"E. c #A8DAD2",
"W. c #86E7DB",
"Q. c #96E0D4",
"!. c #9DE2D6",
"~. c #ACE8DF",
"^. c #B2E4DC",
"/. c #98EBE2",
"(. c #BDEBE4",
"). c #A1F0E8",
"_. c #B7F0E8",
"`. c #DAC7C1",
"'. c #DDCDC7",
"]. c #E7CEC2",
"[. c #E2D4CF",
"{. c #EFDFD7",
"}. c #C3EBE6",
"|. c #C7EEE9",
" X c #CDF0EC",
".X c #D4F2ED",
"XX c #DAF9F5",
"oX c #DBFCF9",
"OX c #EEE8E6",
"+X c #F6ECEB",
"@X c #EBFFFC",
"#X c #F4FAF9",
"$X c #FFFFFF",
/* pixels */
"$X$X$X$X$X$X$X$X$X$X$X$X$X$X$X$X$X$X$X$X$X$X$X$X$X$X$X$X$X$X$X$X$X$X$X$X$X$X$X$X$X$X$X$X$X$X$X$X$X$X$X$X$X$X$X$X$X$X$X$X$X$X$X$X",
"$X$X$X$X$X$X$X$X$X$X$X$X$X$X$X$X$X$X$X$X$X$X$X$X$X$X$X$X$X$X$X$X$X$X$X$X$X$X$X$X$X$X$X$X$X$X$X$X$X$X$X$X$X$X$X$X$X$X$X$X$X$X$X$X",
"$X$X$X$X$X$X$X$X$X$X$X$X$X$X$X$X$X$X$X$X$X$X$X$X$X$X$X$X$X$X$X$X$X$X$X$X$X$X$X$X$X$X$X$X$X$X$X$X$X$X$X$X$X$X$X$X$X$X$X$X$X$X$X$X",
"$X$X$X$X$X$X$X$X$X$X$X$X$X$X$X$X$X$X$X$X$X$X$X$X$X$X$X$X$X$X$X$X$X$X$X$X$X$X$X$X$X$X$X$X$X$X$X$X$X$X$X$X$X$X$X$X$X$X$X$X$X$X$X$X",
"$X$X$X$X$X$X$X$X$X$X$X$X$X$X$X$X$X$X$X$X$X$X$X$X$X$X$X$X$X$X$X$X$X$X$X$X$X$X$X$X$X$X$X$X$X$X$X$X$X$X$X$X$X$X$X$X$X$X$X$X$X$X$X$X",
"$X$X$X$X$X$X$X$X$X$X$X$X$X$X$X$X$X$X$X$X$X$X$X$X$X$X$X$X$X$X$X$X$X$X$X$X$X$X$X$X$X$X$X$X$X$X$X$X$X$X$X$X$X$X$X$X$X$X$X$X$X$X$X$X",
"$X$X$X$X$X$X$X$X$X$X$X$X$X$X$X$X$X$X$X$X$X$X$X$X$X$X$X$X$X$X$X$X$X$X$X$X$X$X$X$X$X$X$X$X$X$X$X$X$X$X$X$X$X$X$X$X$X$X$X$X$X$X$X$X",
"$X$X$X$X$X$X$X$X$X$X$X$X$X$X$X$X$X$X$X$X$X$X$X$X$X$X$X$X$X$X$X$X$X$X$X$X$X$X$X$X$X$X$X$X$X$X$X$X$X$X$X$X$X$X$X$X$X$X$X$X$X$X$X$X",
"$XN.= ; ; ; ; r ; ; ; ; ; ; ; ; ; ; ; ; ; ; r ; ; ; ; ; ; ; ; ; ; ; ; ; ; ; ; ; ; ; & $X$X$X$X$X$X$X$X$X$X$X$X$X$X$X$X$X$X$X$X$X",
"$XZ.| =.=.=.=.=.=.=.=.=.=.=.=.=.=.=.=.=.=.=.=.=.=.=.=.=.=.=.=.=.=.=.=.=.=.=.=.=.=.;.a $X$X$X$X$X$X$X$X$X$X$X$X$X$X$X$X$X$X$X$X$X",
"$XZ._ *.*.*.*.*.*.*.*.*.*.@.*.*.*.*.*.*.*.*.*.*.*.*.*.*.*.*.*.*.*.@.*.*.*.*.*.*.*.;.a $X$X$X$X$X$X$X$X$X$X$X$X$X$X$X$X$X$X$X$X$X",
"$XZ.Q  . . .`  . . . . . . . . . . . .]  . .`  . . . . .[ |  . . . . . . . . . . . .t $X$X$X$X$X$X$X$X$X$X$X$X$X$X$X$X$X$X$X$X$X",
"$XA.- t u e i t u e i u t t t i t t e i u t u a t t t t y t t u i u u t i t t y u b t $X$X$X$X$X$X$X$X$X$X$X$X$X$X$X$X$X$X$X$X$X",
"$XZ. .=.*.H.L 2.1.J.k ;.*.>.O. .1.1.J.v ;.*.;.a 2.1.2.) ~ 2.:.3.a =.=.=.m *.=.=.] h / $X$X$X$X$X$X$X$X$X$X$X$X$X$X$X$X$X$X$X$X$X",
"$XZ._ @.*.7.L 1.&.J.k *...>.o.` 1.%.J.j =.*.=.u 2.%.2.o.! 1.:.6.u =...=.j ..*...@.F.$X$X$X$X$X$X$X$X$X$X$X$X$X$X$X$X$X$X$X$X$X$X",
"$XZ._ *. .7.K 1.:.1.E *...;.o.` 1.;.1.E *.*.=.L 1.%.1.@.| 1.%.K.Y =...4.I ..*...,.S.$X$X$X$X$X$X$X$X$X$X$X$X$X$X$X$X$X$X$X$X$X$X",
"$XZ._ #...<.~ 1.1.1.W *.*.=.*.@.:.:.%.W =.*.*.E :.:.:.+.+.%.&.J.Y *...>.` ..*...5.I.$X$X$X$XP.'.'.'.'.'.'.'.'.'.'.'.'.'.'.[.$X$X",
"$XZ._ *...<.~ 1.%.7.W =.@.=.$.+.1.:.6.W *.*.*.E 2.:.2.-.| 1.:.J.E =.*...E *.*. .5.I.$X$X$Xb.y y y y y y y y y y y y y y y y `.$X",
"$XZ._ @.*.+.~ 1.%.2.a =.*.*._ +.:.%.:.k =...<._ :.:.:.>.! 1.%.J.Y *...<.X...*...Q I.$X$X$X4 R E E E E E E E E E E E E E E c B.$X",
"$XZ.~ *.*. ._ 1.%.J.P *.*.*._ +.1.%.J.m =.*.*.P :.:.2.,.| 1.%.:.E =...<.X...*.*.$.I.$X$X$X9 R W R E W E Q E Q E Q E Q E Q b B.$X",
"$XZ._ *.*.] U 1.%.H.~ *.*.*.P X.1.%.H.W *.*.<.) 1.%.1.$.+.1.%.J.E =...H.X.[ *.*.| I.$X$X$X9 a a w a a a a a a a a a a w a 8 B.$X",
"$XZ._ @...H.K 1.1.6.~ *...>.O.` 1.;.H.W *. .4._ 1.:.1.! ! 1.%.2.M =.' H.` *.*.*.,.S.$X$X$X4 8 0 9 a u u t p u u p u u 9 8 * B.$X",
"$XZ._ *.*.-.L 1.:.1.m =.*.=.) [ 1.:.;.L =. .H.P 1.%.2.) ! 1.;.K.h =...=.K  .*. .5.S.$X$X$X9 k k 4 u t t t t u 8 u t u q k t B.$X",
"$XZ._ *.*.[ L 2.:.2.a =.*.=.P | 1.1.:.j ;...H.k 2.1.1.) ! 2.;.K.i =.....k *.*.$.W D.$X$X$X0 R Q 9 E L L U L L E L L L w Q b B.$X",
"$XZ.W _ _ ) L | | +.v  ._  .L ) +.+.| m  ._ $.m +.| | W W +.| ,.v ] [  .m _ _ ] E n.].$Xv.4 R E 9 Y ) W #.4.3.W _ Q L w W B Z oX",
"$XZ.W ` [ [  . . ._  ._ [ [  ._ _ _ _  .` [ ]  ._  ._ [  .[ ] _  .] [ [  .] ] ] _ ! - $XW.4 R E 9  .=.[ +.:.2.W 2.%.W q W B A oX",
"$XZ._ *.*.*.*.*.*.*.*.*.*.*.*.*.*.*.*.*.*.*.*.*.*.*.=.*.*.*.*.*.....=.....=.....*.=.a $XW.4 R W 9 ) [ ^ _ @.$.L $.$.P w W B A oX",
"$XZ._ =.*.*.*.=.*.*.*.*.*.*.*.=.*.*.*.*.*.*.*.*.*.*.*.*.*.*.*.=...=.=.=.=...=.=.*.=.a $XW.4 R Q 1 w p p f w u p u p 9 d E b A oX",
"$XZ.H Q Q W W W W ( W W W W W W W ( W W W W W W W W W W W W W W W W W W W W W W W W a $XW.4 R R 1 M Q W W E R W W Q a f Q B A oX",
"$XC.; z z z z z z x z z z z z z z x z z M L M L M M z z z z z z z z z z M M M M M b - $XW.4 R Q 2 k M M L M M M L L u w Q B A oX",
"$X{.P.P.P.P.P.P.P.P.P.P.U.P.P.P.P.P.P.U./ e 8 8 7 n.P.P.P.P.P.P.P.P.P.]./ e 7 w * m.U.$XW.9 Q Q 4 8 7 7 0 8 7 8 7 7 8 f Q H A oX",
"$X$X$X$X$X$X$X$X$X$X$X$X$X$X$X$X$X$X$X$Xm.t E E * I.$X$X$X$X$X$X$X$X$X$Xm.t E E e S.$X$XW.4 i i q | :.| _  .*.E :.%.E 9 a r A oX",
"$X$X$X$X$X$X$X$X$X$X$X$X$X$X$X$X$X$X$X$Xm.Y E E b D.$X$X$X$X$X$X$X$X$XL.@ k Q Q j % #X$XW.1 0 9 0 +.2.| ] *.=.E 1.1.W 4 9 2 A oX",
"$X$X$X$X$X$X$X$X$X$X$X$X$X$X$X$X$X$X$X$Xm.b E E z D.$X$X$X$X$X$X$X$X$X#XD W 9 9 ' 0 D $XW.1 M m 9 #.2.+._ =.=.W 2.2.W 9 M v A oX",
"$X$X$X$X$X$X$X$X$X$X$X$X$X$X$X$X$X$X$X$Xm.b E E c D.$X$X$X$X$X$X$X$X$X$XM.6 N *.2 l W { W.4 Q Q 9 ) +.) ^ ' ' M X.$.m d Q B A oX",
"$X$X$X$X$X$X$X$X$X$X$X$X$X$X$X$X$X$X$X$X} H E W x D.$X$X$X$X$X$X$X$X$X$X} Y h w n ].g z i.9 Q Q 1 w h h p h h h h h 9 h Q B C oX",
"$X$X$X$X$X$X$X$X$X$X$X$X$X$X$X$X$X$X$X$XE.a T J g }.$X$X$X$X$X$X$X$X$X$XE.y T J g }.+X7 l i.e a q u E W Q E W W Q M 9 t c s d.XX",
"$X$X$X$X$X$X$X$X$X$X$X$X$X$X$X$X$X$X$X$XG.c.F G g.R.$X$X$X$X$X$X$X$X$X$XG.k.G G l.R.$XOX7 a u m M 9 M M M M M M M j 9 Q Q 5 ).$X",
"$X$X$X$X$X$X$X$X$X$X$X$X$X$X$X$X$X$X$X$XY.q.k.c.q.^.$X$X$X$X$X$X$X$X$X$XY.w.x.z.q.^.$X$XOXi 0 1 L 9 t 7 7 7 7 w 8 u 9 Q R 3 /.$X",
"$X$X$X$X$X$X$X$X$X$X$X$X$X$X$X$X$X$X$X$X!.s.t.w.f.(.$X$X$X$X$X$X$X$X$X$X!.s.w.w.f.(.$X$X$Xk.4 u a 9 L #.| :.:.W %.u u a 2 g.~.$X",
"$X$X$X$X$X$X$X$X$X$X$X$X$X$X$X$X$X$X$X$X$XQ.d.a.}.$X$X$X$X$X$X$X$X$X$X$X$XQ.d.a.}.$X$X$X$X#X9.B W h E $.+.1.2.Q :.u E Q r z.$X$X",
"$X$X$X$X$X$X$X$X$X$X$X$X$X$X$X$X$X$X$X$X$X$X.X.X$X$X$X$X$X$X$X$X$X$X$X$X$X$X.X.X$X$X$X$X$X@XV 2 a t q W +.:.:.Q E 9 u i # z.$X$X",
"$X$X$X$X$X$X$X$X$X$X$X$X$X$X$X$X$X$X$X$X$X$X$X$X$X$X$X$X$X$X$X$X$X$X$X$X$X$X$X$X$X$X$X$X$X@X8.: W Q d L #.1.2.~ j k W a   j.$X$X",
"$X$X$X$X$X$X$X$X$X$X$X$X$X$X$X$X$X$X$X$X$X$X$X$X$X$X$X$X$X$X$X$X$X$X$X$X$X$X$X$X$X$X$X$X$X$Xc.. u Q E 1 W 2.;.k 4 Q Q , V (.$X$X",
"$X$X$X$X$X$X$X$X$X$X$X$X$X$X$X$X$X$X$X$X$X$X$X$X$X$X$X$X$X$X$X$X$X$X$X$X$X$X$X$X$X$X$X$X$X$X_.. $ j Q Y u s 9 m E W w # 8.$X$X$X",
"$X$X$X$X$X$X$X$X$X$X$X$X$X$X$X$X$X$X$X$X$X$X$X$X$X$X$X$X$X$X$X$X$X$X$X$X$X$X$X$X$X$X$X$X$X$X.Xg.O $ j L Q Q Q Q m 0 # . z.$X$X$X",
"$X$X$X$X$X$X$X$X$X$X$X$X$X$X$X$X$X$X$X$X$X$X$X$X$X$X$X$X$X$X$X$X$X$X$X$X$X$X$X$X$X$X$X$X$X$X$Xc.o @ > 4 h h h h > < O q. X$X$X$X",
"$X$X$X$X$X$X$X$X$X$X$X$X$X$X$X$X$X$X$X$X$X$X$X$X$X$X$X$X$X$X$X$X$X$X$X$X$X$X$X$X$X$X$X$X$X$X$XQ.r.Z + < > > > $ $ : e.s. X$X$X$X",
"$X$X$X$X$X$X$X$X$X$X$X$X$X$X$X$X$X$X$X$X$X$X$X$X$X$X$X$X$X$X$X$X$X$X$X$X$X$X$X$X$X$X$X$X$X$X$X$Xp.y.o # $ $ < + : 0.y.Q.#X$X$X$X",
"$X$X$X$X$X$X$X$X$X$X$X$X$X$X$X$X$X$X$X$X$X$X$X$X$X$X$X$X$X$X$X$X$X$X$X$X$X$X$X$X$X$X$X$X$X$X$X$X(.d.t.0.X O O S 0.y.f.#X$X$X$X$X",
"$X$X$X$X$X$X$X$X$X$X$X$X$X$X$X$X$X$X$X$X$X$X$X$X$X$X$X$X$X$X$X$X$X$X$X$X$X$X$X$X$X$X$X$X$X$X$X$X$X|.g.u.u.t.t.u.y.j.$X$X$X$X$X$X",
"$X$X$X$X$X$X$X$X$X$X$X$X$X$X$X$X$X$X$X$X$X$X$X$X$X$X$X$X$X$X$X$X$X$X$X$X$X$X$X$X$X$X$X$X$X$X$X$X$X$X}.a.h.y.y.d.j.#X$X$X$X$X$X$X",
"$X$X$X$X$X$X$X$X$X$X$X$X$X$X$X$X$X$X$X$X$X$X$X$X$X$X$X$X$X$X$X$X$X$X$X$X$X$X$X$X$X$X$X$X$X$X$X$X$X$X$X$XT.j.h..X$X$X$X$X$X$X$X$X",
"$X$X$X$X$X$X$X$X$X$X$X$X$X$X$X$X$X$X$X$X$X$X$X$X$X$X$X$X$X$X$X$X$X$X$X$X$X$X$X$X$X$X$X$X$X$X$X$X$X$X$X$X$X$X$X$X$X$X$X$X$X$X$X$X",
"$X$X$X$X$X$X$X$X$X$X$X$X$X$X$X$X$X$X$X$X$X$X$X$X$X$X$X$X$X$X$X$X$X$X$X$X$X$X$X$X$X$X$X$X$X$X$X$X$X$X$X$X$X$X$X$X$X$X$X$X$X$X$X$X",
"$X$X$X$X$X$X$X$X$X$X$X$X$X$X$X$X$X$X$X$X$X$X$X$X$X$X$X$X$X$X$X$X$X$X$X$X$X$X$X$X$X$X$X$X$X$X$X$X$X$X$X$X$X$X$X$X$X$X$X$X$X$X$X$X",
"$X$X$X$X$X$X$X$X$X$X$X$X$X$X$X$X$X$X$X$X$X$X$X$X$X$X$X$X$X$X$X$X$X$X$X$X$X$X$X$X$X$X$X$X$X$X$X$X$X$X$X$X$X$X$X$X$X$X$X$X$X$X$X$X",
"$X$X$X$X$X$X$X$X$X$X$X$X$X$X$X$X$X$X$X$X$X$X$X$X$X$X$X$X$X$X$X$X$X$X$X$X$X$X$X$X$X$X$X$X$X$X$X$X$X$X$X$X$X$X$X$X$X$X$X$X$X$X$X$X",
"$X$X$X$X$X$X$X$X$X$X$X$X$X$X$X$X$X$X$X$X$X$X$X$X$X$X$X$X$X$X$X$X$X$X$X$X$X$X$X$X$X$X$X$X$X$X$X$X$X$X$X$X$X$X$X$X$X$X$X$X$X$X$X$X",
"$X$X$X$X$X$X$X$X$X$X$X$X$X$X$X$X$X$X$X$X$X$X$X$X$X$X$X$X$X$X$X$X$X$X$X$X$X$X$X$X$X$X$X$X$X$X$X$X$X$X$X$X$X$X$X$X$X$X$X$X$X$X$X$X",
"$X$X$X$X$X$X$X$X$X$X$X$X$X$X$X$X$X$X$X$X$X$X$X$X$X$X$X$X$X$X$X$X$X$X$X$X$X$X$X$X$X$X$X$X$X$X$X$X$X$X$X$X$X$X$X$X$X$X$X$X$X$X$X$X",
"$X$X$X$X$X$X$X$X$X$X$X$X$X$X$X$X$X$X$X$X$X$X$X$X$X$X$X$X$X$X$X$X$X$X$X$X$X$X$X$X$X$X$X$X$X$X$X$X$X$X$X$X$X$X$X$X$X$X$X$X$X$X$X$X",
"$X$X$X$X$X$X$X$X$X$X$X$X$X$X$X$X$X$X$X$X$X$X$X$X$X$X$X$X$X$X$X$X$X$X$X$X$X$X$X$X$X$X$X$X$X$X$X$X$X$X$X$X$X$X$X$X$X$X$X$X$X$X$X$X"
};
