/* XPM */
static char *ab9201b44c6e4c95fd7b5bdd2259ecedMqkssjR8a3VGmLwf[] = {
/* columns rows colors chars-per-pixel */
"64 64 68 1 ",
"  c #170F27",
". c #19172A",
"X c #1F3635",
"o c #1C3F39",
"O c #1E423A",
"+ c #214139",
"@ c #334A3B",
"# c #3C4F3C",
"$ c #3D503C",
"% c #40513C",
"& c #2F8653",
"* c #308F56",
"= c #1CA961",
"- c #25AD62",
"; c #27AE62",
": c #2AAF62",
"> c #2AB062",
", c #2CB063",
"< c #2FB263",
"1 c #2CBD67",
"2 c #2DBD67",
"3 c #32B363",
"4 c #33B463",
"5 c #34B463",
"6 c #37B663",
"7 c #38B764",
"8 c #30B965",
"9 c #3EBA64",
"0 c #39BD66",
"q c #33BF68",
"w c #49BF66",
"e c #33C66A",
"r c #39C368",
"t c #3AC468",
"y c #3BCA6B",
"u c #4CC066",
"i c #51C366",
"p c #56C767",
"a c #62CD67",
"s c #67D068",
"d c #68D068",
"f c #69D169",
"g c #6FD369",
"h c #78D76A",
"j c #83DD6B",
"k c #81DC6C",
"l c #8FE46D",
"z c #96E76E",
"x c #99E86E",
"c c #9FEC6F",
"v c #8AEC71",
"b c #A1EC6F",
"n c #A4EE6F",
"m c #A7F070",
"M c #AAF170",
"N c #ABF270",
"B c #ADF370",
"V c #AFF470",
"C c #B0F571",
"Z c #B2F671",
"A c #B3F671",
"S c #B4F771",
"D c #B2FF75",
"F c #B3FF75",
"G c #B7FF76",
"H c #B8F871",
"J c #BEFC72",
"K c #BEFF77",
/* pixels */
"++++++++++++++++++++++++++++++++++++++++++++++++++++++++++++++X.",
"ttttttttttttttttttttttttttttttttttttttttttttttttttttttttttttty* ",
"77777777777777777777777777777777777777777777777777777777777770& ",
"77777777777777777777777777777777777777777777777777777777777770& ",
"77777777777777777777777777777777777777777777777777777777777770& ",
"77777777777777777777777777777777777777777777777777777777777770& ",
"77777777777777777777777777777777777777777777777777777777777770& ",
"77777777777777777777777777777777777777777777777777777777777770& ",
"77777777777777777777777777777777777777777777777777777777777770& ",
"77777777777777777777777777777777777777777777777777777777777770& ",
"77777777777777777777777777777777777777777777777777777777777770& ",
"77777777777777777777777777777777777777777777777777777777777770& ",
"77777777777777777777777777777777777777777777777777777777777770& ",
"77777777777777777777777777777777777777777777777777777777777770& ",
"77777777777777777777777777777777777777777777777777777777777770& ",
"77777777777777777777777777777777777777777777777777777777777770& ",
"77777777777777777777777777777777777777777777777777777777777770& ",
"77777777777777777777777777777777777777777777777777777777777770& ",
"77777777777777777777777777777777777777777777777777777777777770& ",
"77777777777777777777777777777777777777777777777777777777777770& ",
"77777777777777777777777777777777777777777777777777777777777770& ",
"77777777777777777777777777777777777777777777777777777777777770& ",
"77777777777777777777777777777777777777777777777777777777777770& ",
"77777777777777777777777777777777777777777777777777777777777770& ",
"77777777777777777777777777777777777777777777777777777777777770& ",
"77777777777777777777777777777777777777777777777777777777777770& ",
"77777777777777777777777777777777777777777777777777777777777770& ",
"77777777777777777777777777777777777777777777777777777777777770& ",
"77777777777777777777777777777777777777777777777777777777777770& ",
"77777777777777777777777777777777777777777777777777777777777770& ",
"77777777777777777777777777777777777777777777777777777777777770& ",
"77777777777777777777777777777777777777777777777777777777777770& ",
"75:::::::::::::::::::::::::::>,,>>::::::::::::::::::::::::::<0&.",
"7:JAAAAAAAAAAAAAAAAAAAAAAAAAAAAVAAAAAAAAAAAAAAAAAAAAAAAAAAAHj8& ",
"7,AmmmmmmmmmmmmmmmmmmmmmmmmmmmmmmmmmmmmmmmmmmmmmmmmmmmmmmmmNk8& ",
"7,AmmmmmmmmmmmmmmmmmmmmmmmmmmmmmmmmmmmmmmmmmmmmmmmmmmmmmmmmBk4& ",
"7,VmmmmmmmmmmmmmmmmmmmmmmmmmmmmmmmmmmmmmmmmmmmmmmmmmmmmmmmmBk8& ",
"7;AmmmmmmmmmmmmmmmmmmmmmmmmmmmmmmmmmmmmmmmmmmmmmmmmmmmmmmmmNk8& ",
"7,AmmmmmmmmmmmmmmmmmmmmmmmmmmmmmmmmmmmmmmmmmmmmmmmmmmmmmmmmBk8& ",
"7;AmmmmmmmmmmmmmmmmmmmmmmmmmmmmmmmmmmmmmmmmmmmmmmmmmmmmmmmmBk8& ",
"7>AmmmmmmmmmmmmmmmmmmmmmmmmmmmmmmmmmmmmmmmmmmmmmBAAABmmmmmmNh2&.",
"7>AmmmmmmmmmmmmmmmmmmmmmmmmmmmmmmmmmmmmmmmmmmmmBg363dBmmmmNNj5& ",
"7>AmmmmmmmmmmmmmmmmmmmmmmmmmmmmmmmmmmmmmmmmmmmmBg:63dBmmmmmBk2& ",
"7>VmmmmmmmmmmmmmmmmmmmmmmmmmmmmmmmmmmmmmmmmmmmmBg573dBmmmmmNk3& ",
"5,AmmmmmmmmmmmmmmmmmmmmmmmmmmmmmmmmmmmmmmmmmmmmBd-:-aBMmmmmMk8& ",
"7>AmmmmmmmmmmmmmmmmmmmmmmmmmmmmmmmmmmmmmmmmmmmmmmcmcbmmmmmmBk8& ",
"7>VmmmmmmmmmmmmmmmmmmmmmmmmmmmmmmmmmmmmmmmmmmmmmmmmmMmmmmmmMk8& ",
"7,AmmmmmmmmmmmmmmmmmmmmmmmmmmmmmmmmmmmmmmmmmmmmmmmmmmmmmmmmBk8& ",
"7>VmmmmmmmmmmmVANmmmmmmmmmmmmmmmmmmmmmmmmmmmmmmmmmmmmmmmmmmBk8& ",
"7,AmmmmmmmmmmVu7xmmmmmmmmmmmmmmmmmmmmmmmmmmmmmmmmmmmmmmmmmmBk<& ",
"7,AmmmmmmmmmmA8=xNmmmmmmmmmmmmmmmmmmmmmmmmmmmmmmmmmmmmmmmmmBk8& ",
"7,VmmmmmmmmmmmxzbmmmmmmmmmmmmmmmmmmmmmmmmmmmmmmmmmmmmmmmmmmMk8& ",
"7>VmmmmmmmmmmmmmmmmmmmmmmmmmmmmmmmmmBVNmmmmmmmmmmmmmmmmmmmmBk8& ",
"7>AmmmmmmmmmmmmmmmmmmmmmmmmmmmmmmmmBs9kBmmmmmmmmmmmmmmmmmmmBk8& ",
"7>VmmmmmmmmmmmmmmmmmmmmmmmmmmmmmmmmBp=hNmmmmmmmmmmmmmmmmmmmMk8& ",
"7>AmmmmmmmmmmmmmmmmmmmmmmmmmmmmmmmmBzlcmmmmmmmmmmmmmmmmmmmmBk8& ",
"7,BmmmmmmmmmmmmmmmmmmmmmmmmmmmmmmmmmNNmmmmmmmmmmmmmmmmmmmmmBk8& ",
"6:AmmmmmmmmmmmmmmmmmmmmmmmmmmmmmmmmmmmmmmmmmmmmmmmmmmmmmmmmBk8& ",
"7:BBABABmmmmmmmmmmmmmmmmmmmmmmmmmmmmmmmmmmmmmmmmmmmmmmmmmmmMk8& ",
"7,AAwiiwmmmmmmmmmmmmmmmmmmmmmmmmmmmmmmmmmmmmmmmmmmmmmmmmmmmBk8& ",
"7:AA:55:mmmmmmmmmmmmmmmmmmmmmmmmmmmmmmmmmmmmmmmmmmmmmmmmmmmBk8& ",
"7:AA377:mNmmmmmmmmmmmmmmmmmmmmmmmmmmmmmmmmmmmmmmmmmmmmmmmmmBk8& ",
"t2KKqrr2FFFFFFFFDDDDDDDDDDDDDDDDDDFDFFFFDDDDDDDDFFFFFFFFFFFGve* ",
"++%$o++o####################################################@oX."
};
