/* XPM */
static char *ce059d2dc6694994b5c09aef183241954kQexoQJEZPtVy15[] = {
/* columns rows colors chars-per-pixel */
"64 64 204 2 ",
"   c #000006",
".  c #00000C",
"X  c #020314",
"o  c #040719",
"O  c #06081A",
"+  c #0B0C1D",
"@  c #100F1D",
"#  c #13121E",
"$  c #0D0F20",
"%  c #0E1223",
"&  c #081528",
"*  c #0E1929",
"=  c #131424",
"-  c #181925",
";  c #151728",
":  c #161929",
">  c #1A1C2C",
",  c #161E36",
"<  c #1A1E31",
"1  c #1B2136",
"2  c #1E2439",
"3  c #252737",
"4  c #242C3D",
"5  c #292A39",
"6  c #3E2B32",
"7  c #31303E",
"8  c #502E35",
"9  c #643339",
"0  c #000B51",
"q  c #1E2444",
"w  c #1E2853",
"e  c #11205F",
"r  c #202647",
"t  c #282E41",
"y  c #20274A",
"u  c #21294C",
"i  c #2C3243",
"p  c #2A384F",
"a  c #363949",
"s  c #3D3F4C",
"d  c #222C55",
"f  c #27315A",
"g  c #061F68",
"h  c #1D2A67",
"j  c #1A2769",
"k  c #1E2C6A",
"l  c #162F71",
"z  c #163178",
"x  c #222A66",
"c  c #25316C",
"v  c #2A366A",
"b  c #29366E",
"n  c #202F70",
"m  c #263472",
"M  c #293671",
"N  c #2A3876",
"B  c #2B3B79",
"V  c #483A41",
"C  c #7B3245",
"Z  c #433C69",
"A  c #38414F",
"S  c #374455",
"D  c #3A4453",
"F  c #3C4B63",
"G  c #39416F",
"H  c #2D4276",
"J  c #2E4379",
"K  c #364475",
"L  c #3E5774",
"P  c #404B5B",
"I  c #4A4B58",
"U  c #4C515E",
"Y  c #52535F",
"T  c #454D68",
"R  c #46536B",
"E  c #5A5B67",
"W  c #5A5C67",
"Q  c #455474",
"!  c #475F7B",
"~  c #515475",
"^  c #525C78",
"/  c #4B627E",
"(  c #54637C",
")  c #6B666E",
"_  c #696A75",
"`  c #7D7170",
"'  c #73747D",
"]  c #FA6536",
"[  c #FF713E",
"{  c #8B3549",
"}  c #AD2D49",
"|  c #B23E53",
" . c #A5526B",
".. c #897870",
"X. c #A2667D",
"o. c #CA4359",
"O. c #CE6B4B",
"+. c #D6755B",
"@. c #EE7046",
"#. c #FD7245",
"$. c #F6794E",
"%. c #FB784B",
"&. c #EF7D57",
"*. c #CE7B6E",
"=. c #938A7A",
"-. c #A89B7E",
";. c #FE804E",
":. c #FF8455",
">. c #DB886D",
",. c #C1867F",
"<. c #E68F72",
"1. c #FFCD75",
"2. c #FFD574",
"3. c #FFDB75",
"4. c #FFE876",
"5. c #3A6290",
"6. c #4B5788",
"7. c #4E6482",
"8. c #4E6887",
"9. c #516681",
"0. c #556B85",
"q. c #586F89",
"w. c #5C7286",
"e. c #5B728B",
"r. c #587696",
"t. c #647687",
"y. c #747A81",
"u. c #7C7D86",
"i. c #71799E",
"p. c #507BA3",
"a. c #687EA2",
"s. c #747DA3",
"d. c #5988A3",
"f. c #5390AD",
"g. c #529EBC",
"h. c #6684A3",
"j. c #62A6B8",
"k. c #3B9EF6",
"l. c #3DA8FD",
"z. c #448FD3",
"x. c #4794D5",
"c. c #61B9D3",
"v. c #43AAF6",
"b. c #4CB9F8",
"n. c #68C0CF",
"m. c #67C7D6",
"M. c #5BCCF6",
"N. c #56CAFE",
"B. c #6BDFF2",
"V. c #69E5F9",
"C. c #73F3F7",
"Z. c #78F6F7",
"A. c #74F6FB",
"S. c #75FCFF",
"D. c #7AFFFF",
"F. c #848489",
"G. c #93949B",
"H. c #AA9695",
"J. c #B69B98",
"K. c #8D99A9",
"L. c #88A5B9",
"P. c #8EABBE",
"I. c #9CABBA",
"U. c #A9A3A7",
"Y. c #B6AAAD",
"T. c #A9ADB5",
"R. c #ADB3BC",
"E. c #B4B4B9",
"W. c #D59884",
"Q. c #C6A8A2",
"!. c #93AFC1",
"~. c #8FB2C7",
"^. c #8CB4CB",
"/. c #94B0C2",
"(. c #9AB7C9",
"). c #93B8C9",
"_. c #9CB9CB",
"`. c #84B8D3",
"'. c #9FBED0",
"]. c #BEBEC3",
"[. c #98C1D7",
"{. c #85DDDE",
"}. c #BAC1CA",
"|. c #A5C6D8",
" X c #B9CAD5",
".X c #BDCED9",
"XX c #AED0E2",
"oX c #91ECEE",
"OX c #85EFF6",
"+X c #85F8FB",
"@X c #C0C0C4",
"#X c #C6C7CA",
"$X c #C9CACD",
"%X c #CCCFD3",
"&X c #C9D2DB",
"*X c #D6D6D8",
"=X c #D7DCE2",
"-X c #E3E4E5",
";X c #E9E8EA",
":X c #F7ECE9",
">X c #F4F4F4",
",X c #FFF5F4",
"<X c #FBF8F7",
"1X c #FFFFFF",
/* pixels */
"1X1X1X1X1X1X1X1X1X1X1X1X1X1X1X1X1X1X1X1X1X>X%X*X1X1X1X1X1X1X1X1X1X1X1X1X1X1X1X1X1X1X1X1X1X1X1X1X1X1X1X1X1X1X1X1X1X1X1X1X1X1X1X1X",
"1X1X1X1X1X1X1X1X1X1X1X1X1X1X1X1X1X1X1X>X1XF.  ; 1X>X<X1X1X1X1X1X1X1X1X1X1X1X1X1X1X1X1X1X1X1X1X1X1X1X1X1X1X1X1X1X1X1X1X1X1X1X1X1X",
"1X1X1X1X1X1X1X1X1X1X1X1X1X1X1X1X1X1X1X>X1XG.o 5 1X>X1X1X1X1X1X1X1X1X1X1X1X1X1X1X1X1X1X1X1X1X1X1X1X1X1X1X1X1X1X1X1X1X1X1X1X1X1X1X",
"1X1X1X1X1X1X1X1X1X1X1X1X1X1X1X1X1X1X1X<X1XG.O 3 1X>X1X1X1X1X1X1X1X1X1X1X1X1X1X1X1X1X1X1X1X1X1X1X1X1X1X1X1X1X1X1X1X1X1X1X1X1X1X1X",
"1X1X1X1X1X1X1X1X1X1X1X1X1X1X1X1X1X1X1X>X1XG.O 5 1X>X1X1X1X1X1X1X1X1X1X1X1X1X1X1X1X1X1X1X1X1X1X1X1X1X1X1X1X1X1X1X1X1X1X1X1X1X1X1X",
"1X1X1X1X1X1X1X1X1X1X1X1X1X1X1X1X1X1X1X>X1XG.O 5 <X>X<X<X>X>X>X<X<X>X<X>X>X<X1X1X1X1X1X1X1X1X1X1X1X1X1X1X1X1X1X1X1X1X1X1X1X1X1X1X",
"1X1X1X1X1X1X1X1X1X1X1X1X1X1X1X1X1X1X1X1X1XG.O 5 1X<X1X<X1X1X<X<X<X1X<X1X<X<X1X1X1X1X1X1X1X1X1X1X1X1X1X1X1X1X1X1X1X1X1X1X1X1X1X1X",
"1X1X1X1X1X1X1X1X1X1X1X1X1X1X1X1X1X<X1X$X#Xy.$ 3 %X}.].@X}.@X@X@X}.}.@X@X}.%X1X1X<X1X1X1X1X1X1X1X1X1X1X1X1X1X1X1X1X1X1X1X1X1X1X1X",
"1X1X1X1X1X1X1X1X1X1X1X1X1X1X1X1X1X>X1X5 X = > : O O O O O O O O O O O O X P 1X>X>X>X<X1X1X1X1X1X1X1X1X1X1X1X1X1X1X1X1X1X1X1X1X1X",
"1X1X1X1X1X1X1X1X1X1X1X1X1X1X1X1X1X;X1Xs = > > > > > > > > > > > - > > > = E 1X1X<X1X1X1X1X<X1X1X1X1X1X1X1X1X1X1X1X1X1X1X1X1X1X1X",
"1X1X1X1X1X1X1X1X1X1X1X1X1X1X1X1X1X>X1Xs ; > > < > > > > > > > > > > > > > = O O O   E.<X>X>X>X>X>X<X1X1X1X1X1X1X1X1X1X1X1X1X1X1X",
"1X1X1X1X1X1X1X1X1X1X1X1X1X1X1X1X1X>X1Xs = ; & * > > < > > > > > > > > > > > ; > > O #X1X1X1X1X1X1X1X1X1X1X1X1X1X1X1X1X1X1X1X1X1X",
"1X1X1X1X1X1X1X1X1X1X1X1X1X1X1X1X1X>X1Xs & 6 { C ; > > > > > > > > > > > > > > > > = I W W W E W I *X1X<X1X1X1X1X1X1X1X1X1X1X1X1X",
"1X1X1X1X1X1X1X1X1X1X1X1X1X1X1X1X<X>X1Xs & C o.| & > > > > > > > > - = = - = = = ; = = = = % = % X *X1X1X1X1X1X1X1X1X1X1X1X1X1X1X",
"1X1X1X1X1X1X1X1X1X1X1X1X1X1X1X1X1X>X1Xs % 8 { C * > > > > > > > - P P P P P P P D T 3 > > > > > % G.T.*X1X<X1X1X1X1X1X1X1X1X1X1X",
"1X1X1X1X1X1X1X1X1X1X1X1X1X1X1X1X1X>X1Xs % * * * > > > < > > > > + '.'._._.'._.'.'.|.D : > > > > > + . ' 1X>X1X1X1X1X1X1X1X1X1X1X",
"1X1X1X1X1X1X1X1X1X1X1X1X1X1X1X1X1X>X1Xs = > > > > > > > > > ; $ . )././././././.I._.D ; > > > > > > % u.1X>X1X1X1X1X1X1X1X1X1X1X",
"1X1X1X1X1X1X1X1X1X1X1X1X1X1X1X1X1X>X1Xs = > > > > > > > > ; a XX|././././././.)./.[.D * < > > > > > @ u.1X>X1X1X1X1X1X1X1X1X1X1X",
"1X1X1X1X1X1X1X1X1X1X1X1X1X1X1X1X1X>X<Xs = > > > > > > > > ; i '.!.^.^.^.^.^.).).^.[.S : > > > > > > $ u.1X>X1X1X1X1X1X1X1X1X1X1X",
"1X1X1X1X1X1X1X1X1X1X1X1X1X1X1X1X1X>X1Xs ; < > > > > > > > : a '.^.>.>.>.>.*. . .<.<.8 ; > > > > > > $ u.1X>X1X1X1X1X1X1X1X1X1X1X",
"1X1X1X1X1X1X1X1X1X1X1X1X1X1X1X1X1X>X1Xa = ; ; - > > > > > ; i [.`.%.%.$.;.@.} } ;.:.8 * > > > > > > $ u.1X>X1X1X1X1X1X1X1X1X1X1X",
"1X1X1X1X1X1X1X1X1X1X1X1X1X1X1X1X1X>X1XT q q r q : > > > > - i Q.J.,.,.,.,.,.X.X.W.W.V - > > > > > > $ u.1X>X1X1X1X1X1X1X1X1X1X1X",
"1X1X1X1X1X1X1X1X1X1X1X1X1X1X1X1X1X>X1X6.m M N b - > > > > : 6 :.[ ^.[.).^.^.).).^.[.S ; > > > > > > + u.1X>X1X1X1X1X1X1X1X1X1X1X",
"1X1X1X1X1X1X1X1X1X1X1X1X1X1X1X1X1X:X1X6.c b M v - > > > > : 6 :.$.).I.P./././.P./._.D ; > > > > > > $ u.1X>X1X1X1X1X1X1X1X1X1X1X",
"1X1X1X1X1X1X1X1X1X1X1X1X1X1X<X>X>X0 e c b M M v - - b B u : , z g ).P.P./.U.[ [ `.'.D ; > > > > O -X1X1X1X1X1X1X1X1X1X1X1X1X1X1X",
"1X1X1X1X1X1X1X1X1X1X1X1X1X1X1X>X<Xe b b b b b v - - v N y - 1 N w |.|.[.|.Y.[ [ [.|.D = - > > X   $X<X>X1X1X1X1X1X1X1X1X1X1X1X1X",
"1X1X1X1X1X1X1X1X1X1X1X1X1X1X1X>X<Xe b b b M b c - - v N y - 1 N m i i 7 4 U R.R.3 7 f c d - ; ;X%X<X1X1X1X1X1X1X1X1X1X1X1X1X1X1X",
"1X1X1X1X1X1X1X1X1X1X1X1X1X1X<X>X<Xe b M b b b v - - b N u ; 1 N N = = = # A |.|.. # f N w O + 1X>X1X1X1X1X1X1X1X1X1X1X1X1X1X1X1X",
"1X1X1X1X1X1X1X1X1X1X1X1X1X1X<X>X<Xe b b b b b v - - w u 2 > 1 N M r u u q S a.h.q q c c Q F.u.1X<X1X1X1X1X1X1X1X1X1X1X1X1X1X1X1X",
"1X1X1X1X1X1X1X1X1X1X1X1X1X1X1X>X<Xe b v v b c c = ; - - > - 1 N b m m M N M n k N M b h s.1X1X1X1X1X1X1X1X1X1X1X1X1X1X1X1X1X1X1X",
"1X1X1X1X1X1X1X1X1X1X1X1X1X1X<X>X<Xe l H J J J H 3 4 < 1 > < 2 K G G G M c b M b b b M h i.1X>X1X1X1X1X1X1X1X1X1X1X1X1X1X1X1X1X1X",
"1X1X1X1X1X1X1X1X1X1X1X1X1X1X1X>X<Xe x B.D.D.D.D.D.+XJ N N m ~ 4.3.3.4.` n b M b M b b h i.1X>X1X1X1X1X1X1X1X1X1X1X1X1X1X1X1X1X1X",
"1X1X1X1X1X1X1X1X1X1X1X1X1X1X<X>X>X0 0 m.Z.C.Z.Z.Z.D.H c M c R 2.1.1.3.) k c c c c c b k i.1X>X<X1X1X1X1X1X1X1X1X1X1X1X1X1X1X1X1X",
"1X1X1X1X1X1X1X1X1X1X1X1X1X1X1X1X1X-X:XOXC.M.v.l.v.b.B v M x ~ 2.1.1.3.F.7.0.9.9.9.0.K h i.1X>X1X1X1X1X1X1X1X1X1X1X1X1X1X1X1X1X1X",
"1X1X1X1X1X1X1X1X1X1X1X1X1X1X1X1X1X>X<XOXC.M.k.k.k.v.m x c c ~ 4.3.2.2.=.8.q.q.0.0.e.K h i.1X>X1X1X1X1X1X1X1X1X1X1X1X1X1X1X1X1X1X",
"1X1X1X1X1X1X1X1X1X1X1X1X1X1X1X1X1X>X,XOXC.B.M.M.M.M.g.g.5.x v =...-.-.y.9.0.0.0.0.q.K h i.1X>X1X1X1X1X1X1X1X1X1X1X1X1X1X1X1X1X1X",
"1X1X1X1X1X1X1X1X1X1X1X1X1X1X1X1X1X>X,XOXV.C.C.C.S.A.S.S.f.j l k j 8.8.9.q.q.0.q.q.w.K h i.1X>X1X1X1X1X1X1X1X1X1X1X1X1X1X1X1X1X1X",
"1X1X1X1X1X1X1X1X1X1X1X1X1X1X1X1X1X>X<XoXOXOXOXOX{.{.{.oXh.Z T m m 9.9.7.7.7.9./ 7.9.K j i.<X>X1X1X1X1X1X1X1X1X1X1X1X1X1X1X1X1X1X",
"1X1X1X1X1X1X1X1X1X1X1X1X1X1X1X1X1X1X1X,X,X,X,X:X] @.#.#.%.:.+.l m c c c n c c c c c M x i.1X>X1X1X1X1X1X1X1X1X1X1X1X1X1X1X1X1X1X",
"1X1X1X1X1X1X1X1X1X1X1X1X1X1X1X1X1X1X1X>X>X>X>X:X@.&.&.&.&.&.+.z N N N N N N N N N N N l i.1X>X1X1X1X1X1X1X1X1X1X1X1X1X1X1X1X1X1X",
"1X1X1X1X1X1X1X1X1X1X1X1X1X1X1X1X1X1X1X1X1X<X>X:X@.;.:.&.&.:.O.& : : > > : : > : : > : = _ 1X>X1X1X1X1X1X1X1X1X1X1X1X1X1X1X1X1X1X",
"1X1X1X1X1X1X1X1X1X1X1X1X1X1X1X1X1X1X1X1X1X<X>X:X#.:.&.@.$.&.O.o = + @ = = @ = @ = @ @ o ) 1X>X1X1X1X1X1X1X1X1X1X1X1X1X1X1X1X1X1X",
"1X1X1X1X1X1X1X1X1X1X1X1X1X1X1X1X1X1X1X1X1X<X>X;X8 9 J.J.J.J.H.w.t.t.t.t.t.t.t.t.t.t.t.t.K. X X.X.X.X.X.X.X&X1X1X1X1X1X1X1X1X1X1X",
"1X1X1X1X1X1X1X1X1X1X1X1X1X1X1X1X1X1X1X1X1X<X<X-XX X L.(.^.~./.(.(.(.(.(.(.(.(.(.(.(.(.(.(.P.P.P.P.P.P.P.L./.1X1X1X1X1X1X1X1X1X1X",
"1X1X1X1X1X1X1X1X1X1X1X1X1X1X1X1X1X1X1X1X1X1X>X-XX + L./././././.!././.!././././.!.!././././././././././.P.(.1X1X1X1X1X1X1X1X1X1X",
"1X1X1X1X1X1X1X1X1X1X1X1X1X1X1X1X1X1X1X1X1X>X>X-Xo + L./././././././././././././.!.!./.!./.!./././.!././.P.(.1X1X1X1X1X1X1X1X1X1X",
"1X1X1X1X1X1X1X1X1X1X1X1X1X1X1X1X1X1X1X1X1X<X1X-XX + (.|._._.(.(.(._.(.(.(._._.(._.(._.(._.(._.(.(.(.(./.L.P.1X1X1X1X1X1X1X1X1X1X",
"1X1X1X1X1X1X1X1X1X1X1X1X1X1X1X1X1X1X1X1X1X1X>X-XX : = O S 0.9.7.9.9.9.9.( 9.9.9.9.9.9.9.9.9.( 9.9.7.! T.1X1X1X1X1X1X1X1X1X1X1X1X",
"1X1X1X1X1X1X1X1X1X1X1X1X1X1X1X1X1X1X1X1X1X<X<X-Xo > + X p 7./ 0.0.0.0.0.0.0.( ( ( ( ( ( 9.0.9./ / ! L I.1X1X1X1X1X1X1X1X1X1X1X1X",
"1X1X1X1X1X1X1X1X1X1X1X1X1X1X1X1X1X1X1X1X1X<X>X-Xo $ U.R.}.&X}./ q.0.0.0.0.r.x.z.x.z.c.m.j.( 9.=X&X&X&X-X1X1X1X1X1X1X1X1X1X1X1X1X",
"1X1X1X1X1X1X1X1X1X1X1X1X1X1X1X1X1X1X1X1X1X<X>X-X    >X1X1X1X>X/ q.q.q.0.0.p.l.l.v.k.V.S.m.( 7.1X1X1X1X1X1X1X1X1X1X1X1X1X1X1X1X1X",
"1X1X1X1X1X1X1X1X1X1X1X1X1X1X1X1X1X1X1X1X1X<X1X;XU E T.R.E.].T.F R R T ( 9.d.N.b.b.b.V.Z.c.( 7.1X1X1X1X1X1X1X1X1X1X1X1X1X1X1X1X1X",
"1X1X1X1X1X1X1X1X1X1X1X1X1X1X1X1X1X1X1X1X1X1X1X1X1X1X> X O + + = = = @ F 0.d.D.Z.Z.Z.C.A.n.( 7.1X1X1X1X1X1X1X1X1X1X1X1X1X1X1X1X1X",
"1X1X1X1X1X1X1X1X1X1X1X1X1X1X1X1X1X1X1X1X1X1X1X1X1X1X: X % : > > > > - F q.h.D.S.S.S.S.S.n.Q ! 1X1X1X1X1X1X1X1X1X1X1X1X1X1X1X1X1X",
"1X1X1X1X1X1X1X1X1X1X1X1X1X1X1X1X1X1X1X1X1X1X1X1X1X1X1X1XG.+ > > > > ; F q.0.^ ^ ^ ^ ^ ~ K.1X1X1X1X1X1X1X1X1X1X1X1X1X1X1X1X1X1X1X",
"1X1X1X1X1X1X1X1X1X1X1X1X1X1X1X1X1X1X1X1X1X1X1X1X1X1X1X1X' . O O O > = R r.e.e.r.e.e.e.9.I.1X1X1X1X1X1X1X1X1X1X1X1X1X1X1X1X1X1X1X",
"1X1X1X1X1X1X1X1X1X1X1X1X1X1X1X1X1X1X1X1X1X1X1X1X1X1X1X1X-X#X$X$X=X- - 3 i t t t t t t 4 s Y I 1X1X1X1X1X1X1X1X1X1X1X1X1X1X1X1X1X",
"1X1X1X1X1X1X1X1X1X1X1X1X1X1X1X1X1X1X1X1X1X1X1X1X1X1X1X1X1X1X1X1X1X+ + = : : ; : : : : : = o X 1X1X1X1X1X1X1X1X1X1X1X1X1X1X1X1X1X",
"1X1X1X1X1X1X1X1X1X1X1X1X1X1X1X1X1X1X1X1X1X1X1X1X1X1X1X1X1X1X1X1X1X_ ' a - > > > > > > : a ' _ 1X1X1X1X1X1X1X1X1X1X1X1X1X1X1X1X1X",
"1X1X1X1X1X1X1X1X1X1X1X1X1X1X1X1X1X1X1X1X1X1X1X1X1X1X1X1X1X1X1X1X1X1X1X' $ : : : : : : + ' 1X1X1X1X1X1X1X1X1X1X1X1X1X1X1X1X1X1X1X",
"1X1X1X1X1X1X1X1X1X1X1X1X1X1X1X1X1X1X1X1X1X1X1X1X1X1X1X1X1X1X1X1X1X1X1X_ + = : ; = : : + _ 1X1X1X1X1X1X1X1X1X1X1X1X1X1X1X1X1X1X1X",
"1X1X1X1X1X1X1X1X1X1X1X1X1X1X1X1X1X1X1X1X1X1X1X1X1X1X1X1X1X1X1X1X1X1X1X1X1X1X1X1X1X1X1X1X1X1X1X1X1X1X1X1X1X1X1X1X1X1X1X1X1X1X1X1X",
"1X1X1X1X1X1X1X1X1X1X1X1X1X1X1X1X1X1X1X1X1X1X1X1X1X1X1X1X1X1X1X1X1X1X1X1X1X1X1X1X1X1X1X1X1X1X1X1X1X1X1X1X1X1X1X1X1X1X1X1X1X1X1X1X",
"1X1X1X1X1X1X1X1X1X1X1X1X1X1X1X1X1X1X1X1X1X1X1X1X1X1X1X1X1X1X1X1X1X1X1X1X1X1X1X1X1X1X1X1X1X1X1X1X1X1X1X1X1X1X1X1X1X1X1X1X1X1X1X1X"
};
