/* XPM */
static char *_54f5e01b719450a858573f2b8f751e8i57cSV4dNOVPIpWT[] = {
/* columns rows colors chars-per-pixel */
"64 64 11 1 ",
"  c #1A1C2C",
". c #333C57",
"X c #5D275D",
"o c #B13E53",
"O c #EF7D57",
"+ c #FFCD75",
"@ c #41A6F6",
"# c #73EFF7",
"$ c #B5DCFC",
"% c #F4F4F4",
"& c white",
/* pixels */
"&&&&&&&&&&&&&&&&&&&&&&&&&&&&&&&&&&&&&&&&&&&&&&&&&&&&&&&&&&&&&&&&",
"&&&&&&&&&&&&&&&&&&&&&&&&&&&&&&&&&&&&&&&&&&&&&&&&&&&&&&&&&&&&&&&&",
"&&&&&&&&&&&&&&&&&&&&&&&&&&&&&&&&&&&&&&&&&&&&&&&&&&&&&&&&&&&&&&&&",
"&&&&&&&&&&&&&&&&&&&&&&&&&&&&&&&&&&&&&&&&&&&&&&&&&&&&&&&&&&&&&&&&",
"&&&&&&&&&&&&&&&&&&&&&&&&&&&&&&&&&&&&&&&&&&&&&&&&&&&&&&&&&&&&&&&&",
"&&&&&&&&&&&&&&&&&&&&&&&&&&&%%%%%%%%%%&&&&&&&&&&&&&&&&&&&&&&&&&&&",
"&&&&&&&&&&&&&&&&&&&&&&&&&&&%%%%%%%%%%&&&&&&&&&&&&&&&&&&&&&&&&&&&",
"&&&&&&&&&&&&&&&&&&&&&&&&&&&%%%%%%%%%%&&&&&&&&&&&&&&&&&&&&&&&&&&&",
"&&&&&&&&&&&&%%%%%%%%%%%%%%%++++++++++%%%%%&&&&&&&&&&&&&&&&&&&&&&",
"&&&&&&&&&&&&%%%%%%%%%%%%%%%++++++++++%%%%%&&&&&&&&&&&&&&&&&&&&&&",
"&&&&&&&&&&%%oooooooooo   ++OOOOOoooOO     %%%&&&&&&&&&&&&&&&&&&&",
"&&&&&&&&&&%%oooooooooo   ++OOOOOoooOO     %%%&&&&&&&&&&&&&&&&&&&",
"&&&&&&&&&&%%oooooooooo   ++OOOOOoooOO     %%%&&&&&&&&&&&&&&&&&&&",
"&&&&&&&%%%oooooooooooo   OO+++++XXX++        %%&&&&&&&&&&&&&&&&&",
"&&&&&&&%%%oooooooooooo   OO+++++XXX++        %%&&&&&&&&&&&&&&&&&",
"&&&&&&&%%%oooooooooooo     ++++++++++        %%&&&$$$$$$$$$$&&&&",
"&&&&&&&%%%oooooooooooo     ++++++++++        %%&&&$$$$$$$$$$&&&&",
"&&&&&&&%%%oooooooooooo     ++++++++++        %%&&&$$$$$$$$$$&&&&",
"&&&&&&&%%%oooooooooooo                       %%&&&#######$$$$$&&",
"&&&&&&&%%%oooooooooooo                       %%&&&#######$$$$$&&",
"&&&&&%%   oooooooooo     ooooooooooooooo     %%%%%##########$$&&",
"&&&&&%%   oooooooooo     ooooooooooooooo     %%%%%##########$$&&",
"&&&&&%%   oooooooooo     ooooooooooooooo     %%%%%##########$$&&",
"&&&&&%%             ..............................##########$$&&",
"&&&&&%%             ..............................##########$$&&",
"&&&&&%%          ............................@@        #####$$&&",
"&&&&&%%          ............................@@        #####$$&&",
"&&&&&%%          ............................@@        #####$$&&",
"&&&&&%%             .........................@@        ##$$$$$&&",
"&&&&&%%             .........................@@        ##$$$$$&&",
"&&&&&&&%%%     ooooooo.......................@@        #####$$&&",
"&&&&&&&%%%     ooooooo.......................@@        #####$$&&",
"&&&&&&&%%%     ooooooo.......................@@        #####$$&&",
"&&&&&&&&&&%%   ooooooo...............        .....##########$$&&",
"&&&&&&&&&&%%   ooooooo...............        .....##########$$&&",
"&&&&&&&&&&&&%%%oooooooooooooooooooooo        %%%%%##########$$&&",
"&&&&&&&&&&&&%%%oooooooooooooooooooooo        %%%%%##########$$&&",
"&&&&&&&&&&&&%%%oooooooooooooooooooooo        %%%%%##########$$&&",
"&&&&&&&&&&&&&&&%%             ooooo     %%%%%&&&&&#######$$$$$&&",
"&&&&&&&&&&&&&&&%%             ooooo     %%%%%&&&&&#######$$$$$&&",
"&&&&&&&&&&&&&&&%%     %%%%%%%%%%%%%     %%&&&&&&&&$$$$$$$$$$&&&&",
"&&&&&&&&&&&&&&&%%     %%%%%%%%%%%%%     %%&&&&&&&&$$$$$$$$$$&&&&",
"&&&&&&&&&&&&&&&%%     %%%%%%%%%%%%%     %%&&&&&&&&$$$$$$$$$$&&&&",
"&&&&&&&&&&&&&&&%%ooo%%&&&&&&&&&&%%%oo%%%&&&&&&&&&&&&&&&&&&&&&&&&",
"&&&&&&&&&&&&&&&%%ooo%%&&&&&&&&&&%%%oo%%%&&&&&&&&&&&&&&&&&&&&&&&&",
"&&&&&&&&&&&&&&&&&&&&               &&&&&&&&&&&&&&&&&&&&&&&&&&&&&",
"&&&&&&&&&&&&&&&&&&&&               &&&&&&&&&&&&&&&&&&&&&&&&&&&&&",
"&&&&&&&&&&&&&&&&&&&&               &&&&&&&&&&&&&&&&&&&&&&&&&&&&&",
"&&&&&&&&&&&&&&&&&&&&&&          &&&&&&&&&&&&&&&&&&&&&&&&&&&&&&&&",
"&&&&&&&&&&&&&&&&&&&&&&          &&&&&&&&&&&&&&&&&&&&&&&&&&&&&&&&",
"&&&&&&&&&&&&&&&&&&&&&&          &&&&&&&&&&&&&&&&&&&&&&&&&&&&&&&&",
"&&&&&&&&&&&&&&&&&&&&&&&&&&&&&&&&&&&&&&&&&&&&&&&&&&&&&&&&&&&&&&&&",
"&&&&&&&&&&&&&&&&&&&&&&&&&&&&&&&&&&&&&&&&&&&&&&&&&&&&&&&&&&&&&&&&",
"&&&&&&&&&&&&&&&&&&&&&&&&&&&&&&&&&&&&&&&&&&&&&&&&&&&&&&&&&&&&&&&&",
"&&&&&&&&&&&&&&&&&&&&&&&&&&&&&&&&&&&&&&&&&&&&&&&&&&&&&&&&&&&&&&&&",
"&&&&&&&&&&&&&&&&&&&&&&&&&&&&&&&&&&&&&&&&&&&&&&&&&&&&&&&&&&&&&&&&",
"&&&&&&&&&&&&&&&&&&&&&&&&&&&&&&&&&&&&&&&&&&&&&&&&&&&&&&&&&&&&&&&&",
"&&&&&&&&&&&&&&&&&&&&&&&&&&&&&&&&&&&&&&&&&&&&&&&&&&&&&&&&&&&&&&&&",
"&&&&&&&&&&&&&&&&&&&&&&&&&&&&&&&&&&&&&&&&&&&&&&&&&&&&&&&&&&&&&&&&",
"&&&&&&&&&&&&&&&&&&&&&&&&&&&&&&&&&&&&&&&&&&&&&&&&&&&&&&&&&&&&&&&&",
"&&&&&&&&&&&&&&&&&&&&&&&&&&&&&&&&&&&&&&&&&&&&&&&&&&&&&&&&&&&&&&&&",
"&&&&&&&&&&&&&&&&&&&&&&&&&&&&&&&&&&&&&&&&&&&&&&&&&&&&&&&&&&&&&&&&",
"&&&&&&&&&&&&&&&&&&&&&&&&&&&&&&&&&&&&&&&&&&&&&&&&&&&&&&&&&&&&&&&&",
"&&&&&&&&&&&&&&&&&&&&&&&&&&&&&&&&&&&&&&&&&&&&&&&&&&&&&&&&&&&&&&&&"
};
