/* XPM */
static char *_e1d4f25b0884e86dc1d0232dd2a2831indubIDqL0JuKdAH[] = {
/* columns rows colors chars-per-pixel */
"64 64 55 1 ",
"  c #131421",
". c #141422",
"X c #161725",
"o c #171826",
"O c #161827",
"+ c #171827",
"@ c #181928",
"# c #181A29",
"$ c #191A2A",
"% c #191B2B",
"& c #1A1C2C",
"* c #1B1E2E",
"= c #1C1F30",
"- c #1D2030",
"; c #1E2233",
": c #1E2334",
"> c #1F2335",
", c #1F2336",
"< c #202336",
"1 c #212638",
"2 c #22263A",
"3 c #22273B",
"4 c #24283C",
"5 c #24293D",
"6 c #252A3F",
"7 c #262B41",
"8 c #262C42",
"9 c #272C42",
"0 c #282E43",
"q c #282D44",
"w c #282F45",
"e c #2A3047",
"r c #2B3249",
"t c #2C324A",
"y c #2C334B",
"u c #2C334C",
"i c #2C344C",
"p c #2E354E",
"a c #2E364E",
"s c #2F3750",
"d c #2F3751",
"f c #303752",
"g c #323B54",
"h c #323A55",
"j c #323B56",
"k c #323B57",
"l c #333C57",
"z c #333C58",
"x c #353E5A",
"c c #353F5B",
"v c #353F5C",
"b c #363F5C",
"n c #36405C",
"m c #36405D",
"M c #37425F",
/* pixels */
"&$:cllllllllllllllllllllllllllllllllllllllllllllllllllllllllllw+",
"$X=cllllllllllllllllllllllllllllllllllllllllllllllllllllllllln8 ",
"<bzllllllllllllllllllllllllllllllllllllllllzlllllllllllllllllznz",
":cllllllllllllllllljllllllllllllllllllllllhjlllllllllllllllllzzz",
"<chlllllllllllllzhnlllllllkzlllllljjlzzllnjlllzzllzzllllllllllll",
":cchlllllllcccccznnznnznnnvvznvvzvvnznnnnnznnnnznnnznnlkllllllll",
"<chhllllllc&====&::%-=--&------=--&:--&-**,&%;;-*--=&*ynllllllll",
":chclllllln ++++OO+O+++X++++++OO+++OO+++X+OO+++++++++ 8nllllllll",
",nlllhhhlllpppppppppppppppppppppsaaapppppppppppppppppylhllgchlll",
",zlllnhvclhclcllznlzzznzzzzzznhcvhzzhclzzzzzllzzllllnzjlnnnhllll",
":nllllj:<chlllllhhchllllllzlhzhhzzhzhllhlllllllllllllllz8;8lllll",
":clllljX+cllllllhczcnznznnzclncbnznzcccnznznlccnllllllln3+8nllll",
":chhllh+$cllllllc622333322222333223333232322235,llllhhlz4@0lllll",
"<zhclll+$nllllllb&XX++++++++ooooO+++++X@+++++++ slllnhln4X0cllll",
"<cllllh++nllllllc0880068w8w8090088w888w8e88e8888lzllnhgn6+8lllll",
"<clllll@@nlllczllgcclnnlnnzzgcclvznlnlnllznznnnglzzzhlhn3+8cllll",
"<llllll+@nlzz87hlllllllllllllllllllgllzzlzllllllllw5gjjz5+8nlhll",
"<clllll+@nzzn+ glllllllllllcclclzlllnllhnzllllllln; yzjv5O7ljjll",
"<lllllh++nlln$+llllllllpeeeee0e0eeeeeewr88zzllllln;+rzln5+8nllll",
";clllll+$nlzn$+hlllllln, +X+++++++++XX+++ nlllllln;+alll5O8nllll",
",zllllh++nzzn++gllllllle:<2<2:22,2<3,22:3,nlllllln,+ynln3+8zllll",
"<zlllll+$nzzn++gllllllllcnnbccccnllnnznnnnllzllllz-+rlll6+8lllll",
"<zllllh++nzzn++gllnprhllllllhzlhllllllllllllryllln-+alkz4+8nllll",
"<nlllll++blzn&+jllz: rllllllllnlnlllllllllln+ hlln,Oenln5+8nllll",
",lllllh++nzlb++lllz,@thllllllgpppsssnllllllb$+llhc:Orllz5+engzlh",
",nlllll++nlln%+zlln,Xtcllllln0 ++++%nglllllb$+llzc;Oajnn5+6gggll",
":nllllh++nlln++gzgn,@tlhllllle&&%%%:nllllllb$+hlzc:Ouzlz5+8nllll",
";nlllll+$nlln++ghjn;Xtcclllllnnt+,Mngllllllb++lllc:+rzln5+0nllll",
"<lllllg+$nlln++gzln: rchllhllllr+,zllhlhlllb++lllc;+rnhz3+7cllll",
"<nlllll++nlln%+glln,+tlln4 6nlllnnzllg +cllb$+lllc;+rlhn6+8lllll",
";llllll+$nzln$+llln,+tlll6@6nnlljzhznl++cllc++lllc;+yngn4+8nllll",
"<clllll++nzlb$+hllz,+tlln4@@ 2cllljg +%%cllc$+lllc;+enln4+8nllll",
",nllllj++blln++gllh<+rclb5$$ 2cljzlg ++&nllz%+llln;+rnjz5+8nklll",
";zlllljO+blln++glgn<+phlc5X7ccglhlllzl+$nlln$+lllz-+rnjv5+7lkgll",
",nlllljO$nzln++gllc<+tllc2 5clllnnlljl +zlln$+llkn,+rzzn5+8nllll",
";nlllljO+nzzn&Ojllc<+tlllllhchnt+,zljllzllln++lzln:+azlz5+8nllll",
":chhllh+$nlzn&+llln<+rzlllllllnt+:nvlzllllln++llln:+ynlz3+8zllll",
";chclll+%nlzn++hlll<+rlllllln0&*&&=:zlllllln++lllz-+rlll6+8lllll",
":cllllh$+blln++glln<+rlllllln8 @++X%nlllllzn++glln-+azln4+8nllll",
"<clllll+$nlln+Ollgl<+rcllllllgssssugllllzzzn++llln:+rzln5+wzllll",
":blllllo@nlzn$+hlln< tlllllllllljnjjllllllln+ llhc:Orllz5+engzlh",
":cllllh+@nzzb$Xglllptgllllllllllzhzzllllllllptllzc;Oanlz5+6gggll",
":chlzzh$+nhcb$+glllllhllnnnnnnlnnznznnnnlcllllllzc:Orvkn5+8nllll",
"<zlllzhX$nlhb+$llllllgn0<3,,:22<,25,<4,<2:cllllllc:+rhln5+0nllll",
":cllllh+@nlzn$+glllllln:++++++++++$++++++ nllllllc;+ynhz3+7cllll",
"<clllll+@nchc$@glllllllp088ee8e8r8888e0reelllllllc;+ylhn6+8lllll",
":bllllh+@chccX llllllllclnnlllnlznlnllnlllllllllhc; ezgn4+8nllll",
"<hlllll+$blll76hlllllllllllllllllllllllllllllllllcw6glln4+8nllll",
"<nllllh+$clllclhznznlznzlczcnznnlnlnznlnncznnnzvlcchlllz2+8nllll",
"<zlllll+$cllllhchr88887r8w088w888088w88888087w88hhllllln3$6nllll",
":clllll+$nlllllln&+++++++++++O++@X+++++++++++++ flllllzl6+8lllll",
"<clllll@+nllllllz8,:52222222335,3233332232333,3:glllllzn3$8nllll",
":zllllh +nlllllllznnzzznnznlnznzncccznlnnnccznznhcllllll5 6nllll",
"<clllll<:cllllllllllzllkllllllllhllhllzzghlhzzzzhhlhlllle;elllll",
"<bllllllcllllllczlvzzzvhzznlllnlzzchzlzzzzlzzhkncllclllllnllllll",
"<llllllllllppppppppaasaappppppypppppppspappaaaaappppppllllllllll",
",zlllllllln +++++++OO+++OO+++++++++++++++++O+++++++++ ezllllllll",
",nlllllllln%&;:&-&--==-*=------&=--&--==---===-&---*:%yzllllllll",
",nlllllllllcnzncnnnzvznnvvnzvvnnznnnnzvvnznnznnnnznznnllllllllll",
":nlllllllllllnhhlzzlzlzzlllllkllzzllzlllllllzzllzzlllhllllllllll",
";chlllllllllhlllllllllllllllllllllllzlllllllllllzlllllllllllllll",
":bclllllllllzlllllllllllllllllllllllllllllllllllllllllllllllllll",
"$X&nlllllllllllllllllllllllllllllllllllllllllllllllllllllllllle ",
"&$;nlllllllllllllllllllllllllllllllllllllllllllllllllllllllllne$"
};
